<?xml version="1.0" encoding="UTF-8"?>
<svg id="Layer_1" xmlns="http://www.w3.org/2000/svg" version="1.1" viewBox="0 0 402 125.7">
  <!-- Generator: Adobe Illustrator 30.3.0, SVG Export Plug-In . SVG Version: 2.1.3 Build 182)  -->
  <defs>
    <style>
      .st0 {
        fill: #f15a29;
      }
    </style>
  </defs>
  <path class="st0" d="M254.3,71.8c0,4.1-1.5,7.9-3.7,11.2-1.3,2-3.6,2.8-5.9,1.5-3.9-2.1-7.6-5.9-8.7-10.4-1.4-5.4-.3-11.1,1.8-16,1.7-4.1,4.7-7.2,8.4-9.2,6.5-3.6,11.3,2.8,15.4,7.8,1.5-4.4,2.9-9.9,7.4-8.8l3.7,2,6.1,5.7v-15.1s-46,0-46,0v50.2c0,.6-1.2.7-1.6.5-2.9-1.6-5.3-3.6-7.3-6.3v-44.4h-14.6c4.1,3.8,7.3,7.9,9.9,12.6.8,1.9,1.9,3.9,1.8,6.1-.4,6.4-6,14.2-10.3,12.4-3.2-1.3-5.7-3.7-7.7-6.6-2-3,.6-9.2,4-12,1.5-1.2,3.4-1.6,5.1-.9-1-6.7-6.6-10.5-12.7-11.7v51c-2.8-.7-4.8-2.6-6.8-4.5-1.3-1.2-2-2.5-3-3.9-2.5-3.4-6.2-5.7-10-7.2l-10.6-4.3c-3.2-1.3-6-3.3-8-6.2-.4-.6-.9-2-.4-2.6l22.1-22.3h-14.8c-2.8-1.7-5-3.7-7.1-6-.4-.5-.7-1.1-.5-1.8h180.8c2.6,1.7,4.8,3.7,6.9,6.1v51.7c0,.2,0,.7-.2.7h-.7c-2.7-1.5-5.6-3.4-7.4-6.1-.9-1.4-.4-3.5-.5-5.1-.2-4.1-.7-8-1.6-11.9-.4-2-1.2-3.9-2.2-5.6-3-4.9-8.6-3.3-13.1-.5-.2.1-.5.6-.3.7l.6.4,5.4,4.4c2,1.6,2.5,4.1,1.4,6.4-1.7,3.5-4.2,6.7-7.2,9.1-2.7,2.2-6.1,2.5-9.2.9-2.6-1.4-4.8-3.3-6.5-5.7-6.2-8.7-.4-19.6,8.2-23.8l5.9-2.9c-.5-3.2-1.8-6-3.9-8.4l-3.7-2.6h-12v51.2c-3.7-1.5-6.5-4.1-8.8-7v-44.2h-4.4v50.7c-3.5-1-7-3.3-8.3-6.6-1.4-3.3-1.5-6.9-2-10.3-.8-5.8-1.7-11.5-4-17.2-2.2,3.4-3.4,6.9-4.2,10.6l-2.2,10.1c0,.3-.3.8-.5.9-1.3.9-6.7-3.7-8.4-6.2l-2.9-15.9c-.6,0-1.3.2-1.8.5-2.4,1.9-4.4,3.8-6.2,6.4l4.6,3.9c1.2,1,2.4,2.5,2.4,4.3h0ZM332.4,54.2l6.7,6.3v-20.1h-19.1s4,4.3,4,4.3c.7.8,1.4,1.9,1.8,2.9l1.3,3.6c.4.9,1.1,1.4,2.1,1.8l3.3,1.2h0ZM181.3,73l9.2,6.8v-30.3s-18.6,18.6-18.6,18.6c3.4,1.3,6.3,3,9.4,5h0Z"/>
  <path class="st0" d="M77,108.1c-3.6-1.2-6.2-4.1-6.4-7.9-.2-2.8,1-5.5,3.1-7.4l4-2.8c-19.4-8.4-26-30-23-49.8,3.4,1.4,5.9,3.5,8,6.1.6.8.8,1.8.7,2.7l-.3,8.4c-.2,4.3.4,8.4,1.5,12.6.9,3.5,2.9,10,5.1,11.7,3.8,2.9,8.9,2.7,12.7,0,6.1-4.2,10.4-12.7,11.3-19.9.5-3.6.5-13.2-1-14.5-2-1.7-9,2.2-11.6,5.1l6.8,5.9c1.8,1.6,2,4.2,1.2,6.3-2.6,5.3-7.5,11-13.2,7.9-7.8-4.2-12.6-12.5-8.5-21,1.6-3.3,4-6.3,7.3-8.1l5.3-2.9h-17.7c-3-1.5-5.4-3.7-7.5-6.3-.2-.3-.4-.9-.5-1.5h41.6c3,1.9,5.5,4.2,7.5,7.1-.7.5-1.3.7-1.9.7h-9.9s5.6,4.7,5.6,4.7c3.2,2.7,5.1,9.2,5.5,13.8.6,6.8-.5,13.6-3.2,19.9-1.3,2.9-2.8,5.7-5.1,7.9l-4.8,3.7c5.6,1.6,10.6,3.5,15.9,5.7,6.7,2.7,13.3,5,20.4,6.2,5.1.9,12.2,1.6,16-1.6,1.3-1,2.3-2.3,2-4.1l-2.4,2.6c-.9-2-.7-4.1-.2-6.2l1.2-5.2c.6-2.6-1.6-4.5-.6-5.9l4.3,7c3.1,5.1-.6,12.3-5.3,15.8-6.1,4.6-14.3,2.7-21.5,1.2-9.1-1.9-18-4.1-26.7-7.3-3.2,6.5-8.2,11.7-15.6,9.2h0ZM79.2,103.3c3.4-.2,6.7-2.7,7.4-6.2-2.4-.9-5-1.3-7.5-1-2.2.3-3.1,1.9-2.9,4,.1,1.7,1.1,3.3,3,3.2h0Z"/>
  <path class="st0" d="M122.3,68.9c1.5,1.4,1.8,3.4,1.3,5.2-.8,3.3-2.1,6.3-3.8,9.2-3.6,5.9-12.6-2.8-14.3-8.2-3-9.6,1.6-22.2,10.8-26.5,2.4-1.1,5.1-.8,7.3.7,2.4,1.6,4.5,3.7,6,6.1.4.6.4,1.4,1.4,1.5.7-2.8,1.7-5.5,3.3-7.8.8-1.1,1.9-1.5,3.2-1.3,4.2,1.4,7.7,5,10.8,8.4v-14.5c2.3-.9,4-3.6,5.1-6.2,1.6,1,2.8,2.2,3.8,3.8v51.2c0,.8-1.3.9-1.8.6-2.4-1.7-4.8-3.3-6.6-5.7-.9-1.2-.9-3.2-1.2-4.7l-1.4-10.6-3.4-13.6c-2.7,4.4-3.9,8.9-4.9,13.5-.7,3.1-1.3,6-2.7,8.9-3-1.6-5.6-3.5-7.7-6.1-.7-2.1-.8-4.5-1.2-6.6l-1.5-8.5c0-.2-.4-.7-.5-.9-.8-.8-5.4,3.5-7.2,6.1-.3.4.3,1.3.6,1.6l4.6,4.3h0Z"/>
  <path class="st0" d="M126.4,33.6l-6.7,2.5c-3,1.1-6.2,2.5-8.3.3-2.4-2.5-.8-6.5,1.8-9.3,4.6-4.8,10.6-8.2,17.1-9.7,2.1-.5,4.3-.7,6.4,0,7.9,2.6,14.6,12.2,9.6,17.6-1.6,1.8-4.1,2.3-6.5,1.6l-7-2.5c-2.1-.7-4.1-1.2-6.3-.4h0ZM139.9,28.7c.4-.5.7-1.5.5-2.1-1.2-3-5-3.9-6.1-2.8-.2.2-.4,1-.3,1.4.9,3.3,4.6,5.1,5.9,3.5h0Z"/>
  <path class="st0" d="M149.5,34.1c1.2-2.4.7-4.8.4-7.5,3.9,4.3,2.9,10.9-2.1,13.8-4.4,2.6-9.5,2.9-14.2,1.1l-4.9-1.5c-2.6-.8-5.1-.3-7.6.6l-7.4,2.6c-1.6.6-3.5.6-5.1,0-2-.7-3.3-2.6-3.8-4.6s0-4.2.8-6.2c2-4,4.8-7.7,9-10l-4.7,6.4c-1.4,2.2-1.9,4.7-1.1,7.2,1.4,4.1,5.7,3.5,9.8,2l6-2.3c2.1-.8,4.3-.8,6.5,0l7.3,2.7c4.3,1.6,9-.1,11.1-4.3h0Z"/>
</svg>