<?xml version="1.0" encoding="UTF-8"?>
<svg id="Layer_1" data-name="Layer 1" xmlns="http://www.w3.org/2000/svg" viewBox="0 0 349.94 102.26">
  <defs>
    <style>
      .cls-1 {
        fill: #fff;
      }

      .cls-2 {
        fill: #f11924;
      }
    </style>
  </defs>
  <path class="cls-2" d="M190.5,55.78l-30.99-27.49-.79-.33-.39-.16c-.18-.08.19.72.27.91l.02,27.17-2.7.12-6.02-.19-.02-42.26h6.62s32.15,28.01,32.15,28.01l.02-28.04h8.54s0,42.42,0,42.42l-6.72-.16Z"/>
  <path class="cls-2" d="M68.24,55.65c-2.34.38-4.53.47-6.59.25l-29.62-26.22c-.93-.93-1.85-1.65-2.47-1.91l.02,28.28-8.67-.2V13.55s6.52-.07,6.52-.07l31.32,27.32c.2.24.8.79.88.56l.45-1.26.02-26.59h8.13s0,42.13,0,42.13Z"/>
  <polygon class="cls-2" points="106 32.19 106.02 40.17 89.35 40.17 89.36 56.07 79.9 56 79.89 13.51 120.45 13.51 120.5 20.84 89.4 20.85 89.32 32.21 106 32.19"/>
  <polygon class="cls-2" points="320.92 13.47 331.75 13.6 311.14 36.63 311.09 55.89 301.71 55.84 301.63 36.79 293.65 27.89 287.55 21.03 281.04 13.63 293.46 13.46 299.92 21.18 302.75 24.51 306.91 29.43 310.31 25.75 314.2 21.29 317.57 17.38 320.92 13.47"/>
  <path class="cls-2" d="M256.93,55.97l-7.25-.05c-.33,0-1.19.25-1.32.02-.2-.35-.56-1.37-.57-1.81l-.02-7.22.02-26.04h-18.45s.01-7.35.01-7.35h46.32s.02,7.35.02,7.35l-18.52.09v6.16s.04,23.94.04,23.94l-.28,4.92Z"/>
  <path class="cls-2" d="M218.01,55.73c-3.2.53-6.27.49-9.51.1V13.52s9.51,0,9.51,0v42.21Z"/>
  <path class="cls-2" d="M9.3,53.88c0,1.16-.92,2.38-1.58,2.35l-7.68-.37V13.57s9.22,0,9.22,0l.04,40.29Z"/>
  <path class="cls-2" d="M138.37,55.76c-1.63.26-3.27.31-4.79.25l-4.43-.18V13.54s9.24-.02,9.24-.02v42.25Z"/>
  <polygon points="307.08 28.35 304.28 25.07 300.94 21.16 297.83 17.53 294.25 13.33 320.17 13.26 316.57 17.41 313.67 20.76 309.8 25.22 307.08 28.35"/>
  <path d="M204.02,92.51c4.51-2.22,6.23-10.68,6.81-16.48-3.09-.13-5.4.72-7.37,2.8-2.13,2.24,1.78,5.3.15,5.98-.4.17-1.42-.22-1.67-.59-1.21-1.8-.82-4.26.55-5.94,1.85-2.27,4.67-3.14,7.6-3.36l4.04-.32,1.16,13.7,7.69-10.36,4.89-4.18-5.34,18.97,4.39.79c-.68.43-1.51.51-2.49.51h-5.02s3.82-14.11,3.82-14.11c-4.14,4.66-6.78,9.31-9.96,14.45l-.68-7.92-.63-7.98c-.96,4.47-1.7,8.85-4.32,12.73-3.01,4.45-8.52,4.15-8.19,2.26s3.33-.34,4.59-.96Z"/>
  <path d="M284.99,90.96c-3.16,4.63-8.26,4.6-8.36,2.54-.03-.57,1.31-1.25,1.92-1.05,6.08,2.04,8.92-9.43,9.49-16.47-3.02.04-5.3.85-7.12,2.62-2.51,2.44.8,4.33.28,5.84-.15.44-1.54.34-1.86-.08-1.19-1.57-1.18-3.92.12-5.72s3.84-3.31,6.21-3.51l5.75-.49,1.04,13.96,6.46-9.16c1.69-2.4,3.89-4.17,6.34-5.79l-1.51,4.84-3.93,14.22,4.11.74-1.04.67-6.24-.16,3.32-11.45.63-2.99-10.11,14.85-1.32-15.86c-.93,4.58-1.72,8.86-4.16,12.44Z"/>
  <path d="M239.56,101.44c-.73-.34-1.67-1.67-1.75-2.34-.1-.76.58-2.49,1.27-2.9l3.76-2.25c-.84-.28-1.99-1.33-1.91-2.18.43-5.08,3.7-9.87,8.75-10.94l4.65-.99c-1.48,4.38-3.06,9.16-3.54,13.86-.23,2.26-.14,4.55-1.78,6.15-2.43,2.37-6.06,3.16-9.46,1.59ZM249.13,88.41l1.73-5.83c-2.08-.43-4.32.16-5.5,2.25-2.54,4.5-1.82,7.89.04,7.31,1.64-.51,3.25-2.12,3.73-3.73ZM248.21,96.18l.32-4.7-7.47,5.1c-.6.41-1.29,1.87-1.14,2.51s1.35,1.74,1.99,1.88c3.13.67,5.68-1.74,6.29-4.79Z"/>
  <polygon points="9.35 9.45 0 9.47 0 .01 9.32 0 9.35 9.45"/>
  <path d="M320.36,90.38c-2.1,3.63-6.99,4.45-6.88,3.43l.23-2.11-3.59,2.13c-.55.32-2.01.35-2.6.14-3.15-1.15-.15-11.61,7.23-13.16l4.73-1-3.23,11.65.72.58,3.38-1.65ZM314.36,88.51l1.81-6.02c-1.16-.17-2.89-.14-3.77.49-2.84,2.03-4.33,6.1-2.74,9.11,1.94.22,4.15-1.74,4.7-3.58Z"/>
  <path d="M262.74,94.37c-.83-.4-.61-2.29-.15-3.08l-4.31,2.72c-.56.35-2.18.13-2.64-.28-2.65-2.4,1.01-11.53,7.56-12.91l4.83-1.02-3.29,12.39,4.13-1.72c-1.48,2.13-3.27,3.22-6.12,3.91ZM262.86,88.61l1.85-6.14c-2.75-.63-4.85.59-6.09,3.11-.83,1.69-2.08,4.87-.32,6.33,1.51.69,4.07-1.71,4.55-3.3Z"/>
  <path d="M332.41,92.42l5.13-2.52c-1.55,2.71-5.86,4.97-7.01,3.99-.37-.31-.7-1.54-.57-2.02l3.93-14.88c1.04-3.94,5.06-6.26,8.8-5.56l.69,1.24c.13.23-.8.98-1.07.96l-3.25-.29c-.73-.06-2.03.9-2.25,1.77l-4.39,17.32Z"/>
  <path d="M324.04,92.42l5.15-2.5c-1.88,2.79-5.64,4.94-6.98,3.98-.39-.28-.7-1.53-.55-2.07l4.18-15.62c.87-3.27,4.53-4.95,7.7-4.96.54,0,1.66,1.01,1.45,1.46-.9,1.92-3.69-.04-6.19,1.21l-4.76,18.5Z"/>
  <path d="M238.87,89.76c-.97,2.4-3.82,3.8-6.44,4.4-1.64.38-3.11-.84-3.14-2.49-.15-7.79,6.45-13.28,9.91-10.91,1.25.86.94,3.59-.32,4.27l-6.19,3.34c-.89.48-.75,3.51.52,3.6,1.84.13,3.45-1.39,5.67-2.21ZM237.04,82.04c-.38-.29-1.87-.26-2.23.13-1.02,1.1-2.09,3.47-2.3,5.23,3.57-1.51,6.06-4.18,4.53-5.35Z"/>
  <path class="cls-1" d="M248.21,96.18c-.61,3.05-3.16,5.47-6.29,4.79-.65-.14-1.84-1.24-1.99-1.88s.53-2.1,1.14-2.51l7.47-5.1-.32,4.7Z"/>
  <path class="cls-1" d="M249.13,88.41c-.48,1.61-2.09,3.22-3.73,3.73-1.86.58-2.58-2.81-.04-7.31,1.18-2.09,3.42-2.68,5.5-2.25l-1.73,5.83Z"/>
  <path class="cls-1" d="M314.36,88.51c-.55,1.84-2.76,3.81-4.7,3.58-1.59-3.01-.1-7.08,2.74-9.11.88-.63,2.61-.67,3.77-.49l-1.81,6.02Z"/>
  <path class="cls-1" d="M262.86,88.61c-.48,1.59-3.04,3.99-4.55,3.3-1.77-1.46-.51-4.64.32-6.33,1.24-2.52,3.34-3.74,6.09-3.11l-1.85,6.14Z"/>
  <path class="cls-1" d="M237.04,82.04c1.53,1.17-.96,3.85-4.53,5.35.2-1.76,1.27-4.13,2.3-5.23.36-.39,1.86-.41,2.23-.13Z"/>
  <g>
    <path d="M337.47,6.07h-2.46v-.89h5.98v.89h-2.47v7.2h-1.06v-7.2Z"/>
    <path d="M348.72,9.71c-.06-1.13-.13-2.48-.12-3.49h-.04c-.28.95-.61,1.95-1.02,3.07l-1.43,3.92h-.79l-1.31-3.85c-.38-1.14-.71-2.18-.94-3.14h-.02c-.02,1.01-.08,2.36-.16,3.57l-.22,3.47h-1l.56-8.08h1.33l1.38,3.91c.34,1,.61,1.88.82,2.72h.04c.2-.82.49-1.7.85-2.72l1.44-3.91h1.33l.5,8.08h-1.02l-.2-3.55Z"/>
  </g>
</svg>