<?xml version="1.0" encoding="UTF-8"?>
<svg id="Layer_1" data-name="Layer 1" xmlns="http://www.w3.org/2000/svg" viewBox="0 0 271.1 110.55">
  <defs>
    <style>
      .cls-1 {
        fill: #169b4c;
      }
    </style>
  </defs>
  <path class="cls-1" d="M105.32,80.87c-10.48,17.42-28.02,29.28-48.73,29.66-11.6.21-22.97-3.18-32.55-9.66-10.05-6.8-17.46-16.73-21.25-28.22C-5.02,48.94,3.97,23.34,24.47,9.38,33.23,3.45,43.48.26,54.05.01c12.45-.28,24.62,3.66,34.6,11.1,9-2.76,18.2-4.27,27.68-4.81,1.92,11.49,2.38,22.93,1.32,34.41-.68,7.13-1.93,14.07-3.97,20.91-2.02,6.77-4.74,13.21-8.38,19.26ZM99.7,25.91c-4.15,1.7-7.75,3.65-11.28,6.06-17.35,11.82-27.78,29.23-34.45,48.84-2.1,6.17-3.8,12.34-5.23,18.68l-.76,5.14c16.26-.05,32.03-6.63,43.64-17.76,5.12-4.9,9.24-10.61,12.33-16.97,8.7-17.87,10.98-39.01,7.79-58.59-6.71.82-13.41,1.92-20.01,3.68-11.07,2.94-20.83,9.13-28.14,17.93-7.43,8.85-12.16,19.63-15.13,30.77-3.51,13.12-4.46,26.08-4.58,39.38.27-.58.48-1.01.59-1.54,1.76-8.57,4.14-16.94,7.38-25.1,5.59-14.1,13.75-27.61,25.12-37.76,4.99-4.46,13.01-10.21,19.2-12.41,1.16-.41,2.41-.68,3.53-.36ZM32.34,54.97c-3.38-6.15-7.7-11.46-12.66-16.24-.8-.77-1.94-1.13-2.24-2.25,12.85,7.75,20.91,20.97,23.81,35.33.04.93.02,1.81.66,2.54.89-6.38,1.91-12.53,3.55-18.69-3.38-9.4-9.86-17.29-18.37-22.51-3.77-2.31-7.67-4.16-11.91-5.76-5.11,8.48-8.75,15.73-9.26,25.86-.59,11.79,3.8,21.93,11.29,30.81,6.49,7.61,14.59,13.9,23.15,19.46l-.11-21.76c-.42-9.42-3.35-18.5-7.9-26.78Z"/>
  <g>
    <path class="cls-1" d="M159.72,18.23h-16.53v7.26h14.37v8.1h-14.37v14.83h-8.62V10.13h25.15v8.1Z"/>
    <path class="cls-1" d="M182.27,20.13h8.1v28.3h-8.1v-2.82c-2.28,2.33-5.13,3.5-8.57,3.5-3.89,0-7.13-1.42-9.74-4.26-2.61-2.84-3.92-6.36-3.92-10.57s1.31-7.73,3.92-10.57c2.61-2.84,5.86-4.26,9.74-4.26,3.43,0,6.29,1.17,8.57,3.5v-2.82ZM175.33,41.27c1.99,0,3.64-.67,4.96-2.01,1.32-1.34,1.98-3,1.98-4.99s-.66-3.65-1.98-4.99c-1.32-1.34-2.97-2-4.96-2s-3.61.67-4.92,2c-1.31,1.34-1.97,3-1.97,4.99s.65,3.65,1.97,4.99c1.31,1.34,2.95,2.01,4.92,2.01Z"/>
    <path class="cls-1" d="M195.41,48.43V8.45h8.1v39.98h-8.1Z"/>
    <path class="cls-1" d="M229.2,20.13h8.1v28.3h-8.1v-2.82c-2.28,2.33-5.13,3.5-8.57,3.5-3.89,0-7.13-1.42-9.74-4.26-2.61-2.84-3.92-6.36-3.92-10.57s1.31-7.73,3.92-10.57c2.61-2.84,5.86-4.26,9.74-4.26,3.43,0,6.29,1.17,8.57,3.5v-2.82ZM222.26,41.27c1.99,0,3.64-.67,4.96-2.01,1.32-1.34,1.98-3,1.98-4.99s-.66-3.65-1.98-4.99c-1.32-1.34-2.97-2-4.96-2s-3.61.67-4.92,2c-1.31,1.34-1.97,3-1.97,4.99s.65,3.65,1.97,4.99c1.31,1.34,2.95,2.01,4.92,2.01Z"/>
    <path class="cls-1" d="M263,20.13h8.1v38.84h-8.1v-13.36c-2.28,2.33-5.13,3.5-8.57,3.5-3.89,0-7.13-1.42-9.74-4.26s-3.92-6.36-3.92-10.57,1.31-7.73,3.92-10.57,5.86-4.26,9.74-4.26c3.43,0,6.29,1.17,8.57,3.5v-2.82ZM256.06,41.27c1.99,0,3.64-.67,4.96-2.01,1.32-1.34,1.98-3,1.98-4.99s-.66-3.65-1.98-4.99c-1.32-1.34-2.97-2-4.96-2s-3.61.67-4.92,2c-1.31,1.34-1.97,3-1.97,4.99s.66,3.65,1.97,4.99c1.31,1.34,2.95,2.01,4.92,2.01Z"/>
    <path class="cls-1" d="M159.72,71.23h-16.53v7.26h14.37v8.11h-14.37v14.83h-8.62v-38.3h25.15v8.1Z"/>
    <path class="cls-1" d="M175.22,102.1c-4.35,0-7.99-1.42-10.91-4.26s-4.38-6.36-4.38-10.57,1.46-7.73,4.38-10.57,6.56-4.26,10.91-4.26c2.87,0,5.48.65,7.81,1.94,2.33,1.29,4.16,3.07,5.48,5.34,1.32,2.27,1.98,4.78,1.98,7.55s-.66,5.28-1.98,7.55c-1.32,2.27-3.14,4.05-5.48,5.34-2.33,1.29-4.93,1.94-7.81,1.94ZM170.26,92.26c1.32,1.34,2.97,2.01,4.96,2.01s3.64-.67,4.96-2.01c1.32-1.34,1.98-3,1.98-4.99s-.66-3.65-1.98-4.99c-1.32-1.34-2.97-2.01-4.96-2.01s-3.64.67-4.96,2.01c-1.32,1.34-1.98,3-1.98,4.99s.66,3.65,1.98,4.99Z"/>
    <path class="cls-1" d="M207.47,102.1c-4.35,0-7.99-1.42-10.91-4.26s-4.38-6.36-4.38-10.57,1.46-7.73,4.38-10.57,6.56-4.26,10.91-4.26c2.87,0,5.48.65,7.81,1.94,2.33,1.29,4.16,3.07,5.48,5.34,1.32,2.27,1.98,4.78,1.98,7.55s-.66,5.28-1.98,7.55c-1.32,2.27-3.14,4.05-5.48,5.34-2.33,1.29-4.93,1.94-7.81,1.94ZM202.51,92.26c1.32,1.34,2.97,2.01,4.96,2.01s3.64-.67,4.96-2.01c1.32-1.34,1.98-3,1.98-4.99s-.66-3.65-1.98-4.99c-1.32-1.34-2.97-2.01-4.96-2.01s-3.64.67-4.96,2.01c-1.32,1.34-1.98,3-1.98,4.99s.66,3.65,1.98,4.99Z"/>
    <path class="cls-1" d="M246.77,61.45h8.1v39.98h-8.1v-2.82c-2.28,2.33-5.13,3.5-8.57,3.5-3.89,0-7.13-1.42-9.74-4.26s-3.92-6.36-3.92-10.57,1.31-7.73,3.92-10.57,5.86-4.26,9.74-4.26c3.43,0,6.29,1.17,8.57,3.5v-14.5ZM239.83,94.27c1.99,0,3.64-.67,4.96-2.01,1.32-1.34,1.98-3,1.98-4.99s-.66-3.65-1.98-4.99c-1.32-1.34-2.97-2.01-4.96-2.01s-3.61.67-4.92,2.01c-1.31,1.34-1.97,3-1.97,4.99s.66,3.65,1.97,4.99c1.31,1.34,2.95,2.01,4.92,2.01Z"/>
  </g>
</svg>