<?xml version="1.0" encoding="UTF-8"?>
<svg id="Layer_1" xmlns="http://www.w3.org/2000/svg" version="1.1" viewBox="0 0 289.9 106.2">
  <!-- Generator: Adobe Illustrator 30.3.0, SVG Export Plug-In . SVG Version: 2.1.3 Build 182)  -->
  <defs>
    <style>
      .st0 {
        fill: #fff;
      }
    </style>
  </defs>
  <path class="st0" d="M157.6,104.6l-17.4-.2c-2.6-16.6,3.2-39.5-6.8-42.3-4.3-1.2-9.4-1.2-14.3-.9v43.3h-17c0,.1,0-103.1,0-103.1l31.1.2c6.5,0,13.6,2.6,17.6,7.2,5.8,6.5,5.4,14.5,5.5,22.7,0,9-3.2,17.5-12.9,21.1,19.8,6.2,10,30.2,14.3,52h0ZM139,24.7c-.2-4.6-4.3-8.1-8.7-8.1h-11.2v29.7l10.7-.2c10.3-.2,9.6-11.1,9.2-21.3h0Z"/>
  <path class="st0" d="M271.8,105.1c-9.1,1.9-17.5,1.5-25.1-2.9-6.7-3.8-11.5-12-11.5-20.1V25.5c-.1-8.3,3.8-16.6,10.5-21.1,7.1-4.6,15-5,23.5-4,10.2,1.2,20.6,9.1,20.6,20.2v64.5c0,10-8.5,17.9-18.1,20ZM262.6,91.3c6.4.2,11.4-3.9,11.4-10.2V24.8c0-6.6-6-10.3-11.8-9.9-5.4.3-10.1,3.9-10.1,9.8v57.3c0,5.6,4.9,9.1,10.4,9.2h0Z"/>
  <path class="st0" d="M207.3,81.7l.2-19.8-10.3-.2v-15.1h26.5v34.6c-.1,7.8-4,15.7-10.2,20.1-6.8,4.8-14.9,5.4-23.1,4.4-11.6-1.4-21.1-10.5-21.1-22.7V23.7c0-14.3,11.4-23.5,25.1-23.7,9.5-.1,18.9,1.9,24.4,10.1,4.9,7.2,5.6,15.7,4.7,24.9h-15.9c0,0-.2-10.3-.2-10.3-.1-6.2-4.4-9.4-10.4-9.7-5.6-.2-11,3.3-11,9.8v57.3c0,6.3,5.8,9.4,11.1,9.2,5.4-.2,10.2-3.2,10.3-9.5Z"/>
  <polygon class="st0" points="44.4 1.6 60.1 1.5 41.2 104.5 18.8 104.5 0 1.5 17.1 1.5 30.6 82.6 44.4 1.6"/>
  <rect class="st0" x="70.1" y="1.4" width="17.1" height="103.2"/>
</svg>