<?xml version="1.0" encoding="UTF-8"?>
<svg id="Layer_1" data-name="Layer 1" xmlns="http://www.w3.org/2000/svg" viewBox="0 0 108.33 20">
  <defs>
    <style>
      .cls-1 {
        fill: #ffbc00;
      }
    </style>
  </defs>
  <path class="cls-1" d="M0,0C1.35,0,2.69,0,4.04,0c0,5.12,0,10.24,0,15.36,1.17-.67,2.35-1.34,3.51-2.01-1.16-3.36-.45-7.3,1.96-9.95C12.11.4,16.58-.77,20.33.54c3.01.99,5.39,3.48,6.38,6.44-3.33,1.93-6.68,3.84-10.02,5.75-1.52-.32-2.51-1.74-2.35-3.26,2.26-1.34,4.56-2.59,6.81-3.94-.9-.66-1.89-1.26-3.02-1.42-2.41-.46-4.99.73-6.22,2.83-1.18,1.9-1.13,4.46.12,6.31,1.27,1.98,3.78,3.09,6.11,2.64,1.23-.19,2.32-.86,3.25-1.65.95.94,1.91,1.89,2.85,2.84-1.7,1.64-3.94,2.67-6.3,2.91h-1.79c-2.47-.27-4.79-1.42-6.49-3.21-1.88,1.07-3.74,2.16-5.62,3.21H0V0Z"/>
  <path class="cls-1" d="M36.81,0c1.35,0,2.69,0,4.04,0,0,1.04,0,2.09,0,3.14,1-1.22,2.26-2.3,3.79-2.79,1.51-.54,3.18-.39,4.66.16-1.09,1.04-2.05,2.2-2.79,3.51-2.91.41-5.46,2.86-5.64,5.83-.04,3.38,0,6.77-.02,10.15h-4.04V0Z"/>
  <path class="cls-1" d="M50.5,3.75c2.52-3.19,7.09-4.54,10.96-3.25,3.08.96,5.53,3.48,6.53,6.5-3.3,1.88-6.57,3.82-9.9,5.64-1.55,0-2.69-1.65-2.42-3.11,2.15-1.48,4.56-2.57,6.75-4.01-.85-.59-1.75-1.17-2.78-1.35-2.34-.54-4.92.5-6.25,2.47-1.4,1.96-1.4,4.76-.01,6.73,1.33,1.99,3.91,3.04,6.26,2.5,1.15-.21,2.14-.87,3.02-1.59.96.94,1.91,1.88,2.85,2.83-1.67,1.62-3.86,2.61-6.16,2.91h-1.68c-2.56-.19-4.98-1.37-6.73-3.21-1.8,1.09-3.72,2-5.43,3.21h-.16c-.04-1.54-.02-3.09-.02-4.63,1.17-.67,2.35-1.34,3.52-2.02-1.09-3.22-.51-6.96,1.67-9.6Z"/>
  <path class="cls-1" d="M68.73,0c1.5,0,3,0,4.5,0,1.78,3.62,3.55,7.24,5.34,10.86,1.79-3.61,3.55-7.24,5.35-10.86h4.5c-3.27,6.67-6.56,13.32-9.81,20h-.03C75.27,13.34,72.01,6.67,68.73,0Z"/>
  <path class="cls-1" d="M88.76,8.65c.52-4.49,4.49-8.26,9.03-8.59,4.59-.53,9.26,2.55,10.55,6.95-3.29,1.92-6.63,3.78-9.92,5.71-.97-.23-1.91-.82-2.23-1.81-.16-.58-.42-1.48.32-1.75,2.1-1.21,4.21-2.39,6.3-3.62-.86-.65-1.81-1.23-2.88-1.41-2.34-.5-4.89.57-6.19,2.55-1.35,1.94-1.35,4.67-.01,6.62,1.3,1.99,3.86,3.07,6.21,2.57,1.18-.2,2.21-.87,3.11-1.62.95.95,1.9,1.89,2.85,2.84-1.68,1.63-3.9,2.64-6.22,2.91h-1.83c-2.48-.26-4.82-1.42-6.54-3.21-1.87,1.07-3.73,2.14-5.6,3.21,0-1.55,0-3.09,0-4.64,1.17-.67,2.34-1.34,3.51-2.01-.47-1.52-.69-3.12-.45-4.7Z"/>
</svg>