<?xml version="1.0" encoding="UTF-8"?>
<svg id="Layer_1" data-name="Layer 1" xmlns="http://www.w3.org/2000/svg" viewBox="0 0 383.12 358.27">
  <defs>
    <style>
      .cls-1 {
        fill: #169b4c;
      }
    </style>
  </defs>
  <path class="cls-1" d="M341.36,262.12c-33.97,56.46-90.81,94.9-157.94,96.13-37.6.68-74.45-10.31-105.5-31.31-32.57-22.04-56.59-54.22-68.87-91.46C-16.26,158.63,12.88,75.66,79.32,30.41,107.71,11.19,140.93.86,175.19.05c40.35-.91,79.79,11.86,112.14,35.98,29.17-8.95,58.99-13.84,89.71-15.59,6.22,37.24,7.71,74.32,4.28,111.52-2.2,23.11-6.26,45.6-12.87,67.77-6.55,21.94-15.36,42.81-27.16,62.42l.06-.03ZM323.14,83.99c-13.45,5.51-25.12,11.83-36.56,19.64-56.23,38.31-90.04,94.74-111.65,158.29-6.81,20-12.32,39.99-16.95,60.54l-2.46,16.66c52.7-.16,103.81-21.49,141.44-57.56,16.59-15.88,29.95-34.39,39.96-55,28.2-57.92,35.59-126.43,25.25-189.89-21.75,2.66-43.46,6.22-64.85,11.93-35.88,9.53-67.51,29.59-91.2,58.11-24.08,28.68-39.41,63.62-49.04,99.73-11.38,42.52-14.46,84.53-14.84,127.63.88-1.88,1.56-3.27,1.91-4.99,5.7-27.78,13.42-54.9,23.92-81.35,18.12-45.7,44.56-89.49,81.41-122.38,16.17-14.46,42.17-33.09,62.23-40.22,3.76-1.33,7.81-2.2,11.44-1.17v.03ZM104.83,178.17c-10.95-19.93-24.96-37.14-41.03-52.63-2.59-2.5-6.29-3.66-7.26-7.29,41.65,25.12,67.77,67.96,77.17,114.51.13,3.01.06,5.87,2.14,8.23,2.88-20.68,6.19-40.61,11.51-60.57-10.95-30.47-31.96-56.04-59.54-72.96-12.22-7.49-24.86-13.48-38.6-18.67-16.56,27.48-28.36,50.98-30.01,83.81-1.91,38.21,12.32,71.08,36.59,99.86,21.03,24.66,47.29,45.05,75.03,63.07l-.36-70.52c-1.36-30.53-10.86-59.96-25.6-86.79l-.03-.03Z"/>
</svg>